<?xml version="1.0" ?>
<!-- Uploaded to: SVG Repo, www.svgrepo.com, Generator: SVG Repo Mixer Tools -->
<svg width="800px" height="800px" viewBox="0 0 20 20" version="1.1" xmlns="http://www.w3.org/2000/svg">
<g id="layer1">
<path d="M 1.5 2 A 1.5 1.5 0 0 0 0 3.5 L 0 16.5 A 1.5 1.5 0 0 0 1.5 18 L 17.5 18 A 1.5 1.5 0 0 0 19 16.5 L 19 3.5 A 1.5 1.5 0 0 0 17.5 2 L 1.5 2 z M 1.5 3 L 17.5 3 A 0.5 0.5 0 0 1 18 3.5 L 18 12 L 1 12 L 1 3.5 A 0.5 0.5 0 0 1 1.5 3 z M 1 13 L 9 13 L 9 17 L 1.5 17 A 0.5 0.5 0 0 1 1 16.5 L 1 13 z M 10 13 L 18 13 L 18 16.5 A 0.5 0.5 0 0 1 17.5 17 L 10 17 L 10 13 z " style="fill:#222222; fill-opacity:1; stroke:none; stroke-width:0px;"/>
</g>
</svg>